<svg xmlns="http://www.w3.org/2000/svg" width="35" height="35" viewBox="0 0 35 35">
  <g id="search-icon-putih" transform="translate(-875 -542)">
    <circle id="Ellipse_81" data-name="Ellipse 81" cx="17.5" cy="17.5" r="17.5" transform="translate(875 542)" fill="#2680eb"/>
    <path id="Path_235" data-name="Path 235" d="M14.8,12.971,11.875,10.05a.7.7,0,0,0-.5-.205H10.9A6.091,6.091,0,1,0,9.844,10.9v.478a.7.7,0,0,0,.205.5L12.971,14.8a.7.7,0,0,0,.993,0l.829-.829A.706.706,0,0,0,14.8,12.971Zm-8.7-3.126a3.75,3.75,0,1,1,3.75-3.75A3.748,3.748,0,0,1,6.094,9.844Z" transform="translate(885 551.814)" fill="#fff"/>
  </g>
</svg>
